<svg xmlns="http://www.w3.org/2000/svg" viewBox="0 0 23.979 23.821">
  <defs>
    <style>
      .cls-1 {
        fill: #d1dbe2;
      }
    </style>
  </defs>
  <path id="Shape" class="cls-1" d="M48.717,549.851v1.323a2.6,2.6,0,0,1-2.524,2.647H28.524A2.587,2.587,0,0,1,26,551.174V532.647A2.587,2.587,0,0,1,28.524,530H46.193a2.6,2.6,0,0,1,2.524,2.647v1.323H37.359a2.587,2.587,0,0,0-2.524,2.647V547.2a2.587,2.587,0,0,0,2.524,2.647ZM37.359,547.2H49.979V536.617H37.359Zm5.048-3.308A1.987,1.987,0,1,1,44.3,541.91,1.938,1.938,0,0,1,42.407,543.9Z" transform="translate(-26 -530)"/>
</svg>
